HIERARCHY
ROOT Hips
{
	OFFSET -0.001795 -0.223333 0.028219
	CHANNELS 6 Xposition Yposition Zposition Zrotation Yrotation Xrotation 
	JOINT LeftUpLeg
	{
		OFFSET 0.069520 -0.091406 -0.006815
		CHANNELS 3 Zrotation Yrotation Xrotation
		JOINT LeftLeg
		{
			OFFSET 0.034277 -0.375199 -0.004496
			CHANNELS 3 Zrotation Yrotation Xrotation
			JOINT LeftFoot
			{
				OFFSET -0.013596 -0.397961 -0.043693
				CHANNELS 3 Zrotation Yrotation Xrotation
				JOINT LeftToe
				{
					OFFSET 0.026358 -0.055791 0.119288
					CHANNELS 3 Zrotation Yrotation Xrotation
					End Site
					{
						OFFSET 0.000000 0.000000 0.000000
					}
				}
			}
		}
	}
	JOINT RightUpLeg
	{
		OFFSET -0.067670 -0.090522 -0.004320
		CHANNELS 3 Zrotation Yrotation Xrotation
		JOINT RightLeg
		{
			OFFSET -0.038290 -0.382569 -0.008850
			CHANNELS 3 Zrotation Yrotation Xrotation
			JOINT RightFoot
			{
				OFFSET 0.015774 -0.398415 -0.042312
				CHANNELS 3 Zrotation Yrotation Xrotation
				JOINT RightToe
				{
					OFFSET -0.025372 -0.048144 0.123348
					CHANNELS 3 Zrotation Yrotation Xrotation
					End Site
					{
						OFFSET 0.000000 0.000000 0.000000
					}
				}
			}
		}
	}
	JOINT Spine
	{
		OFFSET -0.002533 0.108963 -0.026696
		CHANNELS 3 Zrotation Yrotation Xrotation
		JOINT Spine1
		{
			OFFSET 0.005487 0.135180 0.001092
			CHANNELS 3 Zrotation Yrotation Xrotation
			JOINT Spine2
			{
				OFFSET 0.001457 0.052922 0.025425
				CHANNELS 3 Zrotation Yrotation Xrotation
				JOINT Neck
				{
					OFFSET -0.002778 0.213870 -0.042857
					CHANNELS 3 Zrotation Yrotation Xrotation
					JOINT Head
					{
						OFFSET 0.005152 0.064970 0.051349
						CHANNELS 3 Zrotation Yrotation Xrotation
						End Site
						{
							OFFSET 0.000000 0.000000 0.000000
						}
					}
				}
				JOINT LeftShoulder
				{
					OFFSET 0.078845 0.121749 -0.034090
					CHANNELS 3 Zrotation Yrotation Xrotation
					JOINT LeftArm
					{
						OFFSET 0.090977 0.030469 -0.008868
						CHANNELS 3 Zrotation Yrotation Xrotation
						JOINT LeftForeArm
						{
							OFFSET 0.259612 -0.012772 -0.027456
							CHANNELS 3 Zrotation Yrotation Xrotation
							JOINT LeftHand
							{
								OFFSET 0.249234 0.008986 -0.001171
								CHANNELS 3 Zrotation Yrotation Xrotation
								End Site
								{
									OFFSET 0.000000 0.000000 0.000000
								}
							}
						}
					}
				}
				JOINT RightShoulder
				{
					OFFSET -0.081759 0.118833 -0.038615
					CHANNELS 3 Zrotation Yrotation Xrotation
					JOINT RightArm
					{
						OFFSET -0.096012 0.032551 -0.009143
						CHANNELS 3 Zrotation Yrotation Xrotation
						JOINT RightForeArm
						{
							OFFSET -0.253742 -0.013329 -0.021401
							CHANNELS 3 Zrotation Yrotation Xrotation
							JOINT RightHand
							{
								OFFSET -0.255298 0.007772 -0.005559
								CHANNELS 3 Zrotation Yrotation Xrotation
								End Site
								{
									OFFSET 0.000000 0.000000 0.000000
								}
							}
						}
					}
				}
			}
		}
	}
}
MOTION
Frames: 11
Frame Time: 0.050000
0.241506 0.910315 0.520781 0.628463 0.688153 -2.838981 3.820418 -0.580337 -9.494119 -8.915211 1.734427 17.414085 8.588756 17.606054 0.723496 0.000000 0.000000 0.000000 -10.997008 0.195339 -12.885740 3.494517 -0.188359 23.553945 -8.275593 -20.158746 9.181629 0.000000 0.000000 0.000000 -5.332131 0.138413 29.750500 6.583090 -1.695321 -16.203773 9.167223 8.277550 26.593800 9.661647 -1.767842 -32.118797 0.000000 0.000000 0.000000 -33.398151 -6.970577 -1.325203 -42.690351 -6.468027 -3.718972 -115.308830 -71.667869 101.176631 0.000000 0.000000 0.000000 23.442048 22.643735 14.462116 36.864396 40.937930 6.350904 -24.782718 61.897762 -10.291983 0.000000 0.000000 0.000000 
0.238983 0.910316 0.516747 0.691883 0.868482 -2.715165 3.553426 -0.595114 -9.351944 -8.295815 1.522404 16.449753 8.520069 17.460480 0.608275 0.000000 0.000000 0.000000 -11.062415 0.186159 -13.670490 3.782942 -0.291939 24.270667 -8.369676 -20.322126 9.451943 0.000000 0.000000 0.000000 -4.780733 -0.020318 30.186803 6.602153 -1.631050 -16.925013 9.171021 8.012888 26.605310 9.091610 -1.687328 -30.738089 0.000000 0.000000 0.000000 -33.472551 -7.218809 -1.089728 -42.814479 -7.955082 -3.244551 -114.633220 -71.873174 100.717311 0.000000 0.000000 0.000000 23.414151 23.486279 14.921076 35.060507 41.844308 6.135876 -26.299064 57.447570 -10.370949 0.000000 0.000000 0.000000 
0.235307 0.910939 0.513327 0.777207 1.087469 -2.439693 3.184251 -0.597257 -8.903773 -7.393705 1.230439 14.713949 8.395665 17.218387 0.622586 0.000000 0.000000 0.000000 -11.535760 0.128960 -15.027754 4.843353 -0.672347 25.703691 -8.457511 -20.461439 10.195609 0.000000 0.000000 0.000000 -3.985818 -0.252311 30.392501 6.749528 -1.673631 -16.888289 9.354405 8.005730 26.275351 8.692077 -1.662979 -29.196104 0.000000 0.000000 0.000000 -34.133027 -7.748937 -0.879788 -42.662021 -8.942425 -2.813868 -114.003239 -72.324453 100.445529 0.000000 0.000000 0.000000 22.994610 23.704793 14.975182 33.662466 42.476541 5.956608 -26.317605 53.108420 -9.548929 0.000000 0.000000 0.000000 
0.230302 0.912310 0.510566 0.790966 0.917550 -1.969678 3.192999 -0.579036 -8.606971 -6.826897 1.059823 12.956150 8.350426 17.189775 1.187255 0.000000 0.000000 0.000000 -11.800694 0.114085 -16.008986 5.846955 -1.011403 26.018369 -8.410865 -20.386988 10.603088 0.000000 0.000000 0.000000 -3.249615 -0.445787 31.085323 6.702411 -1.603810 -17.465119 9.581953 8.223744 26.235597 8.208446 -1.363330 -29.221706 0.000000 0.000000 0.000000 -34.280445 -8.007440 -0.788744 -42.695070 -9.547910 -2.578838 -116.577577 -72.898564 103.874218 0.000000 0.000000 0.000000 22.990144 24.027987 15.229762 32.248795 42.978100 5.668514 -24.936104 49.120372 -8.191595 0.000000 0.000000 0.000000 
0.223301 0.914803 0.508857 0.567296 0.578507 -1.471028 3.373029 -0.548812 -8.313256 -5.842813 0.824552 11.292900 8.326255 17.242626 2.237949 0.000000 0.000000 0.000000 -11.475375 0.184366 -16.759061 6.551467 -1.228823 25.916285 -8.326536 -20.257049 11.063492 0.000000 0.000000 0.000000 -2.771607 -0.557999 31.456618 7.169640 -1.802145 -16.888946 9.700925 8.469058 25.234242 8.089222 -1.437305 -28.005397 0.000000 0.000000 0.000000 -34.428125 -7.895784 -0.950957 -42.971589 -9.817515 -2.391790 -116.389290 -73.447968 104.139197 0.000000 0.000000 0.000000 22.618298 24.202541 15.219777 32.394926 42.683225 5.730391 -23.799875 47.227000 -7.388597 0.000000 0.000000 0.000000 
0.213930 0.916851 0.509026 0.337573 -0.670453 -0.541305 3.734517 -0.527192 -8.409542 -4.882969 0.644308 9.913224 8.722842 18.080120 3.559607 0.000000 0.000000 0.000000 -11.054875 0.330184 -17.413781 7.408350 -1.385118 24.743010 -7.952567 -19.680094 10.563772 0.000000 0.000000 0.000000 -2.546866 -0.499741 31.086245 7.573385 -1.969945 -16.578237 9.648972 8.584778 25.089791 7.313337 -1.248823 -26.675837 0.000000 0.000000 0.000000 -34.191128 -7.687420 -0.823555 -43.144578 -10.515094 -2.242454 -115.665411 -74.424706 104.538820 0.000000 0.000000 0.000000 22.720966 24.351707 15.215202 34.534875 42.669936 6.393485 -20.483756 47.078389 -5.941292 0.000000 0.000000 0.000000 
0.202301 0.917998 0.511124 -0.030039 -1.527144 0.324854 4.365440 -0.485787 -8.434808 -3.868073 0.456245 8.762578 8.997343 18.621045 4.559376 0.000000 0.000000 0.000000 -10.090248 0.516651 -17.413117 7.841528 -1.414896 23.060009 -7.802556 -19.451914 9.511123 0.000000 0.000000 0.000000 -2.498471 -0.436025 30.918608 8.198893 -2.193229 -16.333943 9.595533 7.975123 24.892205 6.716803 -1.129693 -26.153080 0.000000 0.000000 0.000000 -33.985409 -7.004790 -0.787618 -43.429410 -10.519750 -2.399273 -111.570226 -75.560216 101.609040 0.000000 0.000000 0.000000 21.864882 24.366203 14.677474 38.001818 41.012302 6.986274 -16.694909 50.429943 -4.649642 0.000000 0.000000 0.000000 
0.188764 0.918256 0.514783 -0.122944 -2.538602 0.886053 5.215442 -0.410152 -8.141927 -3.578990 0.418445 7.918176 9.337898 19.235770 5.513073 0.000000 0.000000 0.000000 -9.194602 0.682005 -17.330419 8.086934 -1.384577 22.015719 -7.597860 -19.082917 8.073051 0.000000 0.000000 0.000000 -2.350085 -0.384080 30.705288 8.725049 -2.422040 -15.820790 8.843794 7.197030 24.518568 5.891732 -0.831660 -26.277502 0.000000 0.000000 0.000000 -33.488706 -6.463090 -0.505952 -43.917306 -10.471782 -2.620162 -106.646551 -76.776875 98.065576 0.000000 0.000000 0.000000 22.336794 24.295837 14.382836 40.502005 39.890786 7.364992 -11.690618 52.165923 -2.510858 0.000000 0.000000 0.000000 
0.173957 0.918092 0.518892 -0.468297 -3.576996 0.905462 6.684562 -0.289122 -7.913179 -3.766534 0.476458 8.424218 9.691894 19.827024 6.349168 0.000000 0.000000 0.000000 -8.033003 0.836513 -16.719162 8.502607 -1.406907 21.216252 -7.352793 -18.565688 6.574286 0.000000 0.000000 0.000000 -2.321141 -0.303212 31.131488 8.586137 -2.354709 -16.192847 8.704464 6.112007 24.827301 5.166657 -0.636259 -26.580234 0.000000 0.000000 0.000000 -33.431231 -5.991285 -0.057201 -43.620108 -10.881040 -2.733998 -105.440716 -77.990936 98.674597 0.000000 0.000000 0.000000 22.096930 23.539378 13.409575 43.624265 38.155891 7.588530 -6.378710 54.622775 0.012243 0.000000 0.000000 0.000000 
0.158845 0.918236 0.522996 -0.925263 -4.755626 0.850439 8.300204 -0.151716 -7.981896 -3.986787 0.560176 9.752174 10.089377 20.438862 7.493174 0.000000 0.000000 0.000000 -6.776425 0.997487 -16.433393 8.988111 -1.453151 21.155641 -7.035225 -17.879499 5.527053 0.000000 0.000000 0.000000 -1.840119 -0.341711 31.824699 7.904415 -2.190527 -15.967318 8.132095 4.820263 24.791390 4.506985 -0.680617 -25.326901 0.000000 0.000000 0.000000 -33.158023 -5.732828 0.651677 -43.306375 -11.636413 -2.733196 -110.195436 -79.710135 106.125176 0.000000 0.000000 0.000000 22.714178 23.517273 12.955022 44.257287 36.824269 7.281573 -4.979166 55.845168 0.540589 0.000000 0.000000 0.000000 
0.144806 0.918624 0.526385 -1.328435 -5.752062 0.666891 9.808455 -0.005914 -8.489177 -4.244374 0.681412 11.999965 10.368260 20.791704 8.883419 0.000000 0.000000 0.000000 -5.706612 1.111598 -16.065025 9.553091 -1.534212 21.214963 -6.741938 -17.219965 4.827229 0.000000 0.000000 0.000000 -1.610119 -0.314742 32.660497 7.453089 -2.079541 -15.866119 7.601394 4.002492 24.843254 3.799148 -0.495780 -25.013741 0.000000 0.000000 0.000000 -32.610406 -6.261338 1.656870 -43.466927 -13.235489 -2.390287 -127.275565 -80.633905 126.144797 0.000000 0.000000 0.000000 22.164423 23.617081 12.490453 44.896939 36.290912 7.284331 -6.039890 55.807985 -0.152532 0.000000 0.000000 0.000000 
